<svg id="Layer_1" data-name="Layer 1" xmlns="http://www.w3.org/2000/svg" viewBox="0 0 1190.55 841.89"><defs><style>.cls-1{fill:#c26006;}.cls-2{fill:#fefefd;}</style></defs><title>logo</title><path class="cls-1" d="M1093.2,577.33c2.7,2.58,5.08,4.81,7.42,7.09,9.13,8.89,17.42,18.47,23.76,29.6,8,14,11.49,29,9.47,45.12a98,98,0,0,1-7.79,27c-1.23,2.81-2.69,5.52-3.89,8.33-4.27,10-12.09,16.66-21,22.23-10.14,6.34-21.32,9.6-33.16,10.8-11.21,1.14-22.36.61-33.55-.52-10.62-1.07-21.16-2.87-31.83-3.38a52.21,52.21,0,0,0-12.65.51,22,22,0,0,0-4.24,1.26c-11.22,4.66-23,7.1-35,8.34-22.53,2.32-43.69-2.62-64-12-4.51-2.09-9.05-4.09-13.6-6.08a32.11,32.11,0,0,0-3.87-1.39,9.42,9.42,0,0,0-6.44.35A251.5,251.5,0,0,1,814.91,729a193.56,193.56,0,0,1-26.75,3c-24,1.08-46.56-4.24-68.37-13.75-6.29-2.74-12.5-5.72-19.17-7.49a15.43,15.43,0,0,0-13.77,2.34c-5.61,3.93-12,6.58-18.3,9.42A194.84,194.84,0,0,1,628.34,736,143.21,143.21,0,0,1,588,738.65c-16.94-1.26-33-6-48.47-12.89-6.47-2.88-12.86-5.95-19.28-8.92a62.87,62.87,0,0,0-9.46-3.64,10.08,10.08,0,0,0-7.91.84,198.45,198.45,0,0,1-63.69,21.43,191.82,191.82,0,0,1-53.74.39c-19.16-2.47-37.65-7.65-56-13.3-7.87-2.42-15.71-5-23.89-6.27a37.94,37.94,0,0,0-5.37-.4,9.12,9.12,0,0,0-6.61,2.48c-3,2.71-6.54,4.65-9.92,6.82-16.45,10.52-33.7,19.4-52.38,25.33a140.94,140.94,0,0,1-38.24,6.9c-33.9,1.09-62.47-10.57-85.58-35.45-7.1-7.65-11.65-16.83-15.76-26.26a181.07,181.07,0,0,1-14.39-55.94c-1.5-16-.89-31.89.61-47.82,1.23-13.05,3.2-26,4.42-39.06.85-9.06,1.43-18.14-.35-27.19a32.83,32.83,0,0,0-3.26-9.21,270.93,270.93,0,0,1-28-81.17,275.94,275.94,0,0,1-4.1-52.1,324.06,324.06,0,0,1,7-61.35c6.32-30.23,16.28-59.27,28.59-87.54a674.09,674.09,0,0,1,37-71.86c2-3.49,4.91-6.36,7.54-9.39,11.42-13.13,23.68-25.37,37.77-35.67,10.47-7.65,21.64-14,34.06-18,24.22-7.78,47-4.3,68.38,9,14.11,8.76,25.68,20.31,36.08,33.11a255.15,255.15,0,0,1,18.57,26.09,18.17,18.17,0,0,1,1.76,3.71,584.71,584.71,0,0,1,20.16,75.25c3.52,17.41,6.34,34.93,8.68,52.53,1.66,12.47,2.9,25,4.11,37.5s2,25.3,2.9,37.95c.46,6.22.66,12.46.86,18.7a14.84,14.84,0,0,0,4.81,10.69c5.7,5.42,12.68,7.91,20.35,8.58,5.42.47,10.76,0,15.79-2.45a11.66,11.66,0,0,0,6.5-7.24c4.62-14.06,14.75-21.66,29.14-24,6.53-1.08,13.08-.73,19.63-.61,2.64,0,5.29.21,7.93.22,2.23,0,2.26,0,2.41-2.28.48-7,.94-13.92,1.41-20.89.38-5.59.65-11.19,1.18-16.76.74-7.77,5-13.07,12-16.19,6.19-2.73,12.74-3,19.31-2.37a57.57,57.57,0,0,1,20.86,6.15,38,38,0,0,1,11.09,8.35,20.2,20.2,0,0,1,5,18.52,32.41,32.41,0,0,0-.54,12.27,16.27,16.27,0,0,0,9.23,12.46,28.9,28.9,0,0,0,10.33,2.9,56.65,56.65,0,0,0,25.6-3.05,12.5,12.5,0,0,0,7.32-6.41c5.25-10.27,14.27-15.55,25.33-17.62a36.42,36.42,0,0,1,18.78,1.14c6,2.07,10.88,5.53,13.55,11.59,1.2,2.71,3.72,4,6.32,5a48.47,48.47,0,0,0,12.69,2.62c9.41,1,18.82.38,28.21-.27S713.08,372,722.44,371a195.52,195.52,0,0,1,23.75-1.21,37.74,37.74,0,0,1,7.24.81,16.11,16.11,0,0,1,5.27,2.12,9.13,9.13,0,0,1,4.25,10.64q-4.13,16.28-8.31,32.55-6.39,25-12.8,50.05A9.32,9.32,0,0,0,745,476.23a33.7,33.7,0,0,0,11.72,6.14c9.84,3.2,20,4.38,30.29,4.58,14.26.28,28.31-1,42-5.29a48.62,48.62,0,0,0,17.41-9.47c15.2-13,30.74-25.59,47-37.19,8.28-5.89,16.68-11.59,25.93-15.89a34,34,0,0,1,6.88-2.4,18.34,18.34,0,0,1,3.12-.48c6.82-.32,11.29,3.85,11.38,10.71,0,2.75-.2,5.5-.25,8.25a294.46,294.46,0,0,0,1.12,30.75,76.66,76.66,0,0,0,2.52,14.67,40.67,40.67,0,0,0,1.58,4.47c3.09,7.3,6.34,7.57,12.24,6.59,11.26-1.88,22.55-3.56,33.9-4.69,17.08-1.7,34.2-2.35,51.32-.7,14.37,1.38,28.4,4.32,41.63,10.42a37.79,37.79,0,0,1,11.63,8.07c6.77,7,13.41,14.11,19,22.09a54,54,0,0,1,8,15.42c3.23,10.65-.27,19.84-9.75,25.66a72.39,72.39,0,0,1-12.67,5.8A44.15,44.15,0,0,0,1093.2,577.33ZM377.33,528.78a11.67,11.67,0,0,1-.36-4.24q0-45.87,0-91.74c0-.74,0-1.48,0-2.22,0-1.09-.5-1.52-1.54-1.49-.74,0-1.48,0-2.22,0-11.85,0-23.7,0-35.55,0-5.3,0-4.68-.93-4.68,4.69q0,134.91,0,269.83c0,.42,0,.85,0,1.27,0,2.81,0,2.85,2.74,2.85q17.62,0,35.24,0c2.74,0,2.77,0,2.78-2.83,0-7.72,0-15.45,0-23.17,0-.76-.22-1.62.4-2.36a9.46,9.46,0,0,1,2,2.66c5.5,8.42,12.15,15.74,20.67,21.2,15.39,9.85,31.64,12,48.73,5.07,9.73-3.92,17.51-10.54,24.34-18.38,12.57-14.42,18.9-31.59,22.2-50.11,2.76-15.5,3.12-31.15,2.39-46.81a154.93,154.93,0,0,0-5.59-35.65c-4.91-17.12-13.47-31.94-27.52-43.16s-30.22-15.27-48-11.47c-10.43,2.23-19.07,7.85-26.63,15.25A118.28,118.28,0,0,0,377.33,528.78Zm300.14,77a137,137,0,0,0-1.18-18.35,116.74,116.74,0,0,0-21.64-54.85c-7.74-10.62-17.33-19.07-29.4-24.49-13.56-6.09-27.8-7.8-42.47-6.22-22.09,2.38-39.94,12.48-53.37,30.13-14.62,19.22-21.48,41.26-22.67,65.17A173.12,173.12,0,0,0,507.81,626c1.35,11.5,3.62,22.79,8.22,33.44,12.88,29.82,34.44,48.68,67.55,52.41a75.27,75.27,0,0,0,38.79-5.7c17.3-7.46,29.88-20,39.08-36.19C672.75,650,677.45,628.5,677.47,605.79Zm10.92,4.51c.22,4,.45,9.81,1.14,15.59,1.55,13.09,4.3,25.91,10.1,37.81,13.4,27.49,34.48,44.84,65.59,48.11,23.24,2.44,43.73-4.27,61-20.09,11.47-10.5,19.08-23.62,24.6-38,7.6-19.83,9.56-40.41,7.72-61.44a117.1,117.1,0,0,0-21.33-58.57c-7.73-10.9-17.32-19.66-29.53-25.3-13.81-6.37-28.35-8.12-43.36-6.52a74.66,74.66,0,0,0-47.15,23c-9.77,10.13-16.5,22.17-21.37,35.29C690,575.78,687.94,591.95,688.39,610.3Zm348.73,101.95c10.65.07,21.15-1.09,31.24-4.61,20.23-7.06,34.34-20.48,41.07-41,4.36-13.29,4.34-26.89.92-40.39a46.22,46.22,0,0,0-19.89-28.07,94.74,94.74,0,0,0-11.59-6.55c-9.78-4.64-20-7.92-30.43-10.86-10.58-3-21.15-6-31.36-10.15a28.3,28.3,0,0,1-7-3.77c-6.82-5.34-7.26-14.48-1-20.48a20.43,20.43,0,0,1,9.75-5,62,62,0,0,1,22.38-1.14,27.78,27.78,0,0,1,14.2,5.84c4.89,3.95,7.72,9.16,9.46,15.07.85,2.91.89,2.93,3.61,2.32q18.11-4.06,36.2-8.15c2.19-.5,2.23-.55,1.66-2.76A96.15,96.15,0,0,0,1101,537c-7.7-17.12-20.43-28.18-38.85-32.54a118.94,118.94,0,0,0-25.14-3.07c-11-.22-21.8.61-32.3,3.95-19.22,6.11-32.18,18.65-38,38.09a70.16,70.16,0,0,0-1.15,34.86c3.42,16.28,12.3,28.52,27.19,36.25A185.64,185.64,0,0,0,1017,624.64c11.78,4.13,23.83,7.36,35.85,10.7a38.12,38.12,0,0,1,9.37,3.82,11.81,11.81,0,0,1,5.56,7.05,19.55,19.55,0,0,1,.48,9.11c-1.59,8.49-7.07,13.54-14.92,16.13a50.16,50.16,0,0,1-25.08,1.41c-9.54-1.75-16.61-7-21.27-15.52a47.44,47.44,0,0,1-4.53-12.48c-.65-2.89-.7-2.92-3.56-2.38-5.4,1-10.8,2-16.2,3.05-7.48,1.41-15,2.79-22.44,4.22-2.3.44-2.28.5-1.75,2.86a91.38,91.38,0,0,0,3.42,11.55c7.28,19.8,20.25,34.23,40.06,42.08C1013.26,710.71,1025.06,712.3,1037.12,712.24ZM926.24,434.84c-1.17.7-1.73,1-2.24,1.35-13.21,9.36-26.39,18.75-39.63,28a4.49,4.49,0,0,0-2.09,4.19c.07,11.43,0,22.86,0,34.28,0,3.16,0,3.17-3,3.18-5,0-9.95,0-14.92,0-1.54,0-2.28.31-2.27,2.07q.09,19.2,0,38.41c0,1.71.6,2.14,2.2,2.11,4.76-.08,9.52-.05,14.28,0,3.87,0,3.72-.59,3.72,3.78q0,41.43,0,82.85c0,11.21,0,22.43.88,33.63.52,6.55,1.35,13,3.7,19.24,4.1,10.81,11.3,18.46,22.47,22.08,6.44,2.09,13.07,2.43,19.77,2.15a72.85,72.85,0,0,0,28.2-6.73,3.07,3.07,0,0,0,2.08-3.64c-.54-4.83-.91-9.69-1.35-14.53-.66-7.37-1.31-14.75-2-22.12-.2-2.13-.23-2.14-2.32-1.35-.79.3-1.57.63-2.35.95-3.94,1.58-7.92,3-12.21,3.22-7,.37-11.51-3.5-12.2-10.47-.34-3.37-.6-6.74-.6-10.13,0-14.92-.12-29.84-.14-44.76q0-25.55,0-51.11c0-3.44,0-3.06,3.13-3.07h23.17c.74,0,1.48,0,2.22,0,.93,0,1.34-.45,1.32-1.36,0-.74,0-1.48,0-2.22q0-17.14,0-34.28c0-4.67,0-4.67-4.71-4.67-7.62,0-15.24,0-22.86,0-2.21,0-2.21-.05-2.28-2.28,0-.42,0-.85,0-1.27q0-31.43,0-62.85C926.24,438.14,926.24,436.79,926.24,434.84ZM227.35,129.55c-19.76,0-33.31,3.67-45.89,10.76-21.9,12.35-37.31,30.81-49.05,52.64-1.37,2.55-1,3.53,1.43,5.31,2.14,1.55,4.32,3,6.48,4.57q15.56,11,31.11,21.92c2.87,2,3.82,1.89,6.23-.65,1.67-1.76,3.31-3.56,5.06-5.26,6.17-6,12.82-11.35,20.69-15a35.77,35.77,0,0,1,18.79-3.47c8,.77,14.71,4.36,20.88,9.22a76.27,76.27,0,0,1,13.27,13.59c1.5,2,3.08,2.58,5.46,1.81,16.18-5.25,32.39-10.41,48.58-15.64,3.26-1.05,3.85-2.4,2.45-5.46a183.59,183.59,0,0,0-18.43-32.13c-8.56-11.73-18.55-22-31-29.57C250.71,134.45,237.1,129.63,227.35,129.55ZM190.6,739a88,88,0,0,0,32.53-6.14c19.52-7.55,35.24-20.28,48.73-36,2.28-2.66,1.73-4.45-1.75-6Q247.34,680.35,224.54,670c-3.32-1.52-3.65-1.44-6.26,1.36a50.72,50.72,0,0,1-10.38,8.79c-7.73,4.77-16,6.64-24.85,3.83-6.57-2.07-11.68-6.24-16.07-11.42-2.57-3-3.25-3.14-6.65-1l-37.21,23.05c-1.89,1.17-3.82,2.28-5.63,3.56a2.89,2.89,0,0,0-.76,4.4,17.51,17.51,0,0,0,1.65,1.92,116.35,116.35,0,0,0,20.22,17.75C154.28,732.9,171.48,738.92,190.6,739ZM480.17,482.2c0,2.82.05,5.65,0,8.47,0,1.48.47,2.1,2,2.05,2.43-.07,4.87.1,7.3,0,4.51-.18,4,.74,4-4.08q0-70.45,0-140.9c0-.32,0-.63,0-1-.05-2.65-.05-2.67-2.59-2.7s-5.08,0-7.62,0c-3.11,0-3.11,0-3.13,3.13,0,.53,0,1.06,0,1.59q0,24.91,0,49.82c0,1,.45,2.07-.58,3-.93-1-1.75-2-2.62-2.92-2.82-2.93-5.84-5.59-10-6.41-12.67-2.51-23.48.64-31.88,10.75-5,6-7.48,13.24-9,20.74a100.33,100.33,0,0,0-.59,34.72c1,7.15,2.82,14,6.71,20.31,6.64,10.72,16.1,15.78,28.67,15.15a18.39,18.39,0,0,0,11-4.25C474.68,487.38,477.2,484.83,480.17,482.2Zm191.26,33.61c-2.43,2.33-4.8,4.56-7.13,6.84-1.63,1.59-1.59,1.6-.21,3.3,8.11,10,25.65,11.13,34.25,1a50.14,50.14,0,0,0,10.16-19.86c1.55-5.82,2.75-11.73,4.38-17.52q13.36-47.28,26.86-94.51c.22-.78.8-1.54.14-2.68-3.43,0-7,0-10.59,0-2.72,0-2.75,0-3.46,2.53q-10.31,36.28-20.61,72.57c-.12.43-.18,1-.92,1.06l-15.41-55.25c-1.73-6.21-3.44-12.42-5.21-18.62-.3-1-.33-2.35-2.05-2.31-3.7.07-7.4,0-11.11,0-1.4,0-1.58.73-1.26,1.85.15.51.32,1,.47,1.52q13.6,47.38,27.21,94.75a15.38,15.38,0,0,1,.71,5.62,53.75,53.75,0,0,1-1.8,10.93c-1.38,4.61-3.4,8.88-7.07,12.19-4.67,4.21-9.88,4.16-14.4-.19C673.37,518.05,672.51,517,671.43,515.81ZM316.05,399.08c.08-2.57-.77-3.52-3.52-4.26q-24.17-6.57-48.35-13.1c-3.25-.88-4-.55-5.55,2.46q-6,11.74-11.87,23.5c-1.78,3.55-1.52,4.39,1.95,6.28q22.85,12.43,45.73,24.82c3.61,2,4.42,1.71,6.69-1.76a97.21,97.21,0,0,0,12.27-27C314.46,406.2,315.26,402.37,316.05,399.08ZM81.48,444.49a42.93,42.93,0,0,0,.38,8.86,75.39,75.39,0,0,0,6.71,24.32c1.23,2.64,2.38,3.08,5.07,1.93q25.36-10.81,50.69-21.68c2.57-1.1,3-2,2.57-4.67-1.34-8.13-2.83-16.23-3.93-24.39-.49-3.62-2-4.91-6.06-4-8.86,2-17.79,3.65-26.69,5.46q-12.57,2.54-25.14,5.1c-2.79.57-3.33,1.14-3.57,4C81.37,441.1,81.48,442.8,81.48,444.49Zm218-107.65v0c-8.35-.25-16.69-.51-25-.74-3.13-.09-4,.47-4.51,3.21q-2.62,12.88-5.13,25.79c-.63,3.3-.05,4.14,3.14,5q24.6,6.72,49.21,13.4c3.26.88,4.22.4,5.29-2.68a109.08,109.08,0,0,0,6.47-38.54c-.08-3.69-.87-4.54-4.41-4.65ZM651.28,475a16.11,16.11,0,0,1-7,5.39c-6,2.84-11.46.65-13.89-5.53a25.78,25.78,0,0,1-1.72-9.61q0-28.56,0-57.11c0-3.65-.23-3.35,3.5-3.35,5.71,0,11.42,0,17.13,0,1.49,0,2.08-.48,2-2-.09-2.54,0-5.08,0-7.61,0-2.8,0-2.83-2.75-2.84-5.71,0-11.42,0-17.13,0-2.72,0-2.74,0-2.75-2.83,0-5-.06-9.94,0-14.91,0-1.62-.48-2.26-2.16-2.2-3,.11-5.92,0-8.88,0-2.23,0-2.28.07-2.3,2.32,0,5,0,9.94,0,14.91,0,2.63,0,2.65-2.56,2.67-3.6,0-7.19.09-10.79,0-1.72,0-2.2.62-2.14,2.23.1,2.75.08,5.5,0,8.25,0,1.5.47,2.06,2,2,3.49-.09,7,0,10.47,0,3,0,3,0,3,2.87,0,5.29,0,10.58,0,15.87,0,15,0,30,.05,45.06a32,32,0,0,0,4.26,16.7,16.14,16.14,0,0,0,9.48,7.47,27.15,27.15,0,0,0,28.59-8c1-1.11,1-1.87-.09-2.92C655.55,479.73,653.6,477.52,651.28,475Zm-360.5-18.72c.1-1.8-1.13-2.59-2.47-3.34q-22.9-12.66-45.8-25.32c-2.91-1.61-3.93-1.3-5.67,1.61q-6.9,11.58-13.71,23.22c-1.78,3-1.53,4.07,1.4,6,5.21,3.43,10.45,6.82,15.68,10.22q16.88,11,33.78,22c3.27,2.11,5.18,1.33,5.85-2.39a106.29,106.29,0,0,1,10.07-29.6A4.87,4.87,0,0,0,290.79,456.29ZM108.25,373.07v.07q-12.52-.57-25-1.14c-3.56-.16-4.5.52-4.76,3.91a121.87,121.87,0,0,0,1.93,32.84c.6,3.07,1.42,3.54,4.65,3.32q6.33-.42,12.66-.85,17.89-1.24,35.77-2.51c2.51-.18,3.48-1.09,3.6-3.51q.65-13.31,1.18-26.63c.13-3.28-.74-4.18-4-4.33C125.58,373.84,116.92,373.46,108.25,373.07ZM96.31,582.52h-.48c0,5.71,0,11.42,0,17.13,0,3.41,1,4.27,4.48,4,.74-.07,1.47-.18,2.2-.29,5.12-.74,10.24-1.5,15.37-2.24q15.84-2.27,31.69-4.52c2.77-.4,3.55-1.19,3.59-3.87q.23-12.84.32-25.69c0-3-1-4-4-4.06q-24.57-.43-49.15-.79c-3.21,0-4,.72-4,3.87C96.27,571.53,96.31,577,96.31,582.52ZM251.5,594v.25c8.14,0,16.29,0,24.43,0,3.72,0,4.53-.89,4.23-4.51-1-12.15-4.63-23.59-9.38-34.73-1.06-2.49-1.93-2.85-4.74-2.54q-19.54,2.12-39.09,4.21c-3.47.37-4.2,1.11-4.22,4.56q-.07,14.12-.09,28.23a12.71,12.71,0,0,0,0,1.58,2.87,2.87,0,0,0,2.8,2.89A18.2,18.2,0,0,0,228,594ZM301,320.88v0l24.72-1.11c3.26-.15,4.1-.94,4.42-4.1a71.14,71.14,0,0,0-3.25-29.72c-1.76-5.33-2.19-5.54-7.75-4.67-7.93,1.25-15.88,2.42-23.82,3.61-6.16.93-12.34,1.8-18.49,2.78-3.14.5-3.76,1.26-3.82,4.35-.17,8.46-.35,16.92-.47,25.37-.06,3.85.81,4.63,4.7,4.48Q289.08,321.38,301,320.88ZM109,360.17c8.35.28,16.71.58,25.06.81,3.23.09,4.1-.79,4.34-4,.12-1.58.25-3.16.35-4.75.32-4.75.69-9.5.93-14.25.15-2.89-.29-3.38-3.1-4.31-.6-.2-1.21-.38-1.82-.57l-32.22-9.58c-5.17-1.54-10.32-3.1-15.5-4.6-2.6-.75-3.73-.14-4.62,2.34-.21.6-.36,1.21-.55,1.82-3.31,10.52-3.1,21.28-2.19,32.08.3,3.6.88,4,4.58,4.18Q96.59,359.77,109,360.17ZM108.4,247.8c-.19,2.42,1,3.2,2.44,3.84q21.08,9.53,42.15,19.07c2.81,1.27,4,.84,5.3-1.93q5.55-12.09,11-24.24c1.12-2.51.8-3.47-1.67-5q-19-11.4-38.13-22.7c-2.57-1.52-3.54-1.29-5.39,1.06a91.71,91.71,0,0,0-15.18,28C108.65,246.74,108.46,247.56,108.4,247.8ZM87.63,300.29c-.16,2.43.49,3.29,3.42,4.08q23.57,6.35,47.16,12.64c3.29.88,4.38.19,5.24-3.15q2.85-11,5.65-22.11c.85-3.38.49-4.09-2.85-5.58-4.05-1.81-8.12-3.59-12.18-5.38q-14.07-6.2-28.15-12.4c-3.42-1.5-4.18-1.26-6.32,1.83a72.51,72.51,0,0,0-5.34,9A71.06,71.06,0,0,0,87.63,300.29ZM323.8,258.85a95,95,0,0,0-7.19-30.95c-1.27-3.08-2.21-3.55-5.39-2.67q-21.06,5.81-42.09,11.71c-3.12.87-3.53,1.59-3.2,4.78.05.53.11,1.05.2,1.57Q268,255,269.89,266.74c.64,4,1.5,4.64,5.49,4.09l.94-.14L307,265.76c4.59-.74,9.18-1.44,13.75-2.27,2.46-.45,3-1.22,3.08-3.62C323.81,259.34,323.8,258.81,323.8,258.85ZM556.38,407.39A6.59,6.59,0,0,1,556,404c0-3.17-.07-6.35,0-9.52,0-1.67-.6-2.25-2.23-2.19-2.43.09-4.87,0-7.3,0-4.13,0-3.9-.61-3.9,3.92q0,46.35,0,92.7c0,.63,0,1.27,0,1.9-.1,1.33.41,1.91,1.81,1.88,3.17-.06,6.35-.09,9.52,0,1.76.06,2.18-.73,2.09-2.29s0-3.39,0-5.08q0-23.65,0-47.3c0-12.15,4.45-22.19,13.89-30A16.58,16.58,0,0,1,583,404,26.88,26.88,0,0,1,590.7,406c1.42.63,2.29.45,2.91-1.13,1-2.46,2-4.88,3.22-7.25.7-1.41.23-2.07-1-2.73a24.85,24.85,0,0,0-8.6-3.07c-10.59-1.44-19.43,1.64-26.34,9.89C559.4,403.43,558,405.3,556.38,407.39Zm-295.1-98.72c.26-5.93.4-10.05.65-14.16a5,5,0,0,0-1.7-4.21Q243.31,274,226.45,257.7c-1.12-1.08-2.3-1.94-3.93-1.38s-2,2.09-2.09,3.59c-.69,8.85-1.33,17.7-2,26.55a5,5,0,0,0,1.69,4.5q17.47,15.66,34.85,31.43c1.17,1.06,2.4,1.81,4,1.14s1.85-2.14,1.91-3.69C261,315.52,261.18,311.19,261.28,308.67Zm-108.11,29.8h-.51c0,4.23,0,8.46,0,12.69,0,3.32,2.1,4.51,5.07,3,.47-.24.92-.53,1.37-.79,13.59-8,27.16-16,40.79-23.9a5,5,0,0,0,2.89-4.47c.26-6.87.64-13.74,1-20.6a6,6,0,0,0,0-1.27,2.87,2.87,0,0,0-3.11-2.52,5.91,5.91,0,0,0-2.38.81c-14,6.67-28.06,13.38-42.12,20a4.58,4.58,0,0,0-3,4.71C153.21,330.22,153.16,334.35,153.16,338.47ZM254.57,604.34v-.19H231.4c-4.34,0-4.83.36-5,4.58-.24,5.81-.37,11.63-.49,17.45-.08,4,.49,4.56,4.5,4.77,10.14.55,20.27,1.12,30.41,1.67,5.7.31,11.41.62,17.11.83,2.75.1,3.84-.69,3.93-3q.43-11.42.62-22.84c0-1.91-1-2.92-2.85-3.2a17.17,17.17,0,0,0-2.53-.07ZM153.91,619.67h.39c0-2.75,0-5.5,0-8.25s-1-3.63-3.72-3.49-5.69.46-8.54.73q-19.9,1.87-39.8,3.76c-3.14.3-4,1.16-3.79,4.21q.61,11.25,1.39,22.49c.23,3.19,1.54,4.15,4.59,3.46q23-5.21,46.08-10.49c2.7-.62,3.25-1.26,3.38-4.17C154,625.17,153.91,622.42,153.91,619.67Zm128.21,38.72c-.09-2-.15-4-.29-6-.41-5.9-.79-6.19-6.77-6.82-8.73-.93-17.44-2-26.16-3-6-.68-12-1.41-18-2-3.81-.41-4.48.12-5.13,3.79-.55,3.12-1,6.26-1.53,9.39-.61,3.8-.24,4.46,3.47,5.9q22.78,8.81,45.57,17.58c3.58,1.38,4.58.92,6.09-2.64C281.61,669.38,282.15,663.94,282.12,658.39Zm-72-323.86c-.45,1.92.46,3.42,2,4.78,2.64,2.28,5.16,4.7,7.73,7.06,8.49,7.8,17.05,15.52,25.42,23.45,2.4,2.27,5.55,1.82,6.25-1.86,1.14-6,2.7-12,4.15-17.91a5.13,5.13,0,0,0-1.61-5.39c-7.8-7.61-15.48-15.33-23.21-23q-6.53-6.49-13.06-13c-1-1-2.08-1.91-3.63-1.29s-2,1.94-2.17,3.55C211.44,318.74,210.78,326.54,210.13,334.53Zm-58.46,49.69H151c0,4.44,0,8.88,0,13.32,0,4,2,5.2,5.44,3.17,11.63-6.92,23.22-13.91,34.84-20.84a4.59,4.59,0,0,0,2.57-4c.26-5,.71-9.91,1.08-14.87.21-2.85.53-5.69.58-8.54s-1.79-3.94-4.44-3c-.3.11-.59.24-.87.37-11.87,5.56-23.72,11.15-35.61,16.66-2,.91-2.95,2.15-2.9,4.37C151.74,375.35,151.67,379.79,151.67,384.23Zm58-116.28h0c.07-.95.16-1.9.2-2.85.12-2.85.28-5.71.3-8.56,0-3.78-1.87-4.89-5.32-3.2l-1.13.58L183,264.9q-9.11,4.82-18.22,9.64c-1.35.71-2.59,1.46-2.79,3.17q-1.38,11.49-2.75,23a3.11,3.11,0,0,0,1.28,3.34c1.37.87,2.61.47,3.83-.35,1.76-1.17,3.52-2.35,5.32-3.46,11.41-7,23.22-13.05,36.43-15.91,2.43-.53,2.93-1.08,3.1-3.69C209.42,276.4,209.51,272.17,209.67,267.95Zm-57.3,376.29c-.12,0-.65.08-1.17.19q-23.37,5.18-46.73,10.37c-3.31.74-3.84,1.48-3.49,4.86A59.75,59.75,0,0,0,104.78,676a38.32,38.32,0,0,0,3.46,6.77c1.86,2.83,2.81,3.09,5.72,1.56l1.11-.61,25.41-14.36c5.52-3.12,11.06-6.21,16.57-9.37,2.28-1.31,2.82-2.29,2.16-4.34-1-3.22-2.23-6.38-3.43-9.55C155.28,644.75,154.22,644.13,152.37,644.24Zm372-201.94q0-23,0-46c0-.63-.05-1.27,0-1.9.14-1.48-.41-2.11-2-2.05-2.64.09-5.29,0-7.93,0-3.42,0-3.42,0-3.43,3.44,0,.21,0,.42,0,.63q0,46.18,0,92.36a18.33,18.33,0,0,1,0,1.9c-.16,1.5.45,2.08,2,2,2.85-.08,5.71,0,8.57,0s2.76,0,2.79-2.78c0-.63,0-1.27,0-1.9Q524.4,465.15,524.39,442.3ZM203.32,379.56a4.09,4.09,0,0,0,1.44,3.05l7.17,8q7.9,8.87,15.8,17.74c2.63,2.93,4.16,2.84,6.48-.43q5.51-7.74,10.93-15.55c1.79-2.57,1.73-3.49-.5-5.76q-15.56-15.81-31.15-31.57c-1.07-1.09-2.18-2.1-3.86-1.49-1.47.54-1.9,1.78-2.15,3.23-1,5.51-2,11-3,16.5C204,375.41,203.69,377.48,203.32,379.56Zm-15,36.42h.32c0-3.7,0-7.4,0-11.1s-2-4.81-5.15-3.11c-9.58,5.15-19.12,10.4-28.69,15.57a3.91,3.91,0,0,0-2.19,4.15c.45,7.07.79,14.14,1.19,21.21a12.38,12.38,0,0,0,.3,2.51,2.86,2.86,0,0,0,3.9,2.13,8.58,8.58,0,0,0,1.69-.85c8.68-5,17.34-10.11,26.05-15.1a4.5,4.5,0,0,0,2.6-4.31C188.28,423.38,188.32,419.68,188.32,416Zm14.11-11.13c-1.73,0-2.93,1.15-3.06,3.32-.47,7.6-.83,15.21-1.32,22.81a4.58,4.58,0,0,0,1.91,4.08c4,3.33,7.88,6.74,11.87,10,2.57,2.13,4.1,1.83,5.82-1.16q5.06-8.8,10-17.68c1.36-2.44,1.12-3.52-1.12-5.11-7.25-5.14-14.53-10.23-21.8-15.34A3.79,3.79,0,0,0,202.43,404.85Zm55.11-151.75a4.47,4.47,0,0,0-.54-2.21c-3.85-8.82-8-17.5-14-25.13a41,41,0,0,0-12-10.69c-2.8-1.59-4.74-.65-5.15,2.54-.67,5.24-1.17,10.49-1.8,15.74a3.9,3.9,0,0,0,2.51,4.53,36.67,36.67,0,0,1,10.77,8.22,91.19,91.19,0,0,1,10.25,13.28,19.32,19.32,0,0,0,1.6,2.35,2.81,2.81,0,0,0,4.6-.25C255.26,258.79,256.32,255.91,257.54,253.11Zm-41.68-31.63h.41c0-2.22,0-4.43,0-6.65,0-4-1.56-5.09-5.41-3.86a28.33,28.33,0,0,0-6.27,3c-9.42,5.84-16.84,13.7-22.91,22.89-3.66,5.53-3.64,5.55-.48,11.4,1.71,3.17,3.94,3.48,6.08.62,4.79-6.4,11.24-10.44,18.46-13.47,2.14-.9,4.32-1.7,6.49-2.55,3.33-1.3,3.57-1.6,3.63-5.05C215.89,225.7,215.86,223.59,215.86,221.48ZM214.5,582.19h.14c0-2.33,0-4.65,0-7,0-1.44-.14-2.76-1.55-3.55s-2.61-.24-3.79.61q-6.68,4.84-13.39,9.62a4.33,4.33,0,0,0-2,3.74q-.1,7.45-.28,14.9a3.3,3.3,0,0,0,1.84,3.39c1.33.64,2.45.07,3.52-.72,4.5-3.34,9-6.68,13.51-10a4.46,4.46,0,0,0,2-4.05C214.44,586.84,214.5,584.51,214.5,582.19ZM163,585.83h.08c-.15,1.69-.27,3.38-.46,5.06a4.08,4.08,0,0,0,2.35,4.41c4.34,2.43,8.59,5,12.92,7.45,3.28,1.85,5.22.78,5.56-3s.56-7.39,1-11.06a4.29,4.29,0,0,0-1.91-4.35c-4.43-3.26-8.8-6.61-13.24-9.85-3.21-2.34-5.27-1.29-5.61,2.77C163.42,580.14,163.21,583,163,585.83Zm32.75,40.87c0,1.58-.07,3.17,0,4.74.16,3.15,2.13,4.42,4.91,3,4.87-2.51,9.66-5.16,14.44-7.84,1.77-1,2.13-2,1.64-4-.9-3.68-1.84-7.36-2.87-11-.91-3.23-3-3.89-5.66-1.81-2.32,1.82-4.42,4-6.87,5.58C197.22,618.15,194.68,621.47,195.74,626.7Zm2.3,35.75c-.08,1.68-.19,3.37-.23,5.05,0,1.41.16,2.75,1.66,3.46a3.23,3.23,0,0,0,3.75-.82c4.5-4,9-8,13.5-11.94a3.67,3.67,0,0,0,1.15-4.25c-.87-2.82-1.5-5.7-2.34-8.53-1.07-3.6-3.34-4.2-6-1.6q-3.27,3.22-6.41,6.56C197.31,656.58,198.35,653.79,198,662.45Zm-11.48,2.1h.1c0-1.8-.07-3.6,0-5.39a4.92,4.92,0,0,0-1.74-4.19c-3.13-2.84-6.14-5.81-9.26-8.66-2.54-2.31-4.57-1.82-5.74,1.38-.94,2.58-1.69,5.22-2.61,7.81a3.59,3.59,0,0,0,.83,4.06q6.39,6.6,12.76,13.23c1,1.07,2.21,1.69,3.69,1.1a3.2,3.2,0,0,0,1.95-3.32Q186.56,667.56,186.56,664.55Zm-1.94-34.94h.22c0-1.38,0-2.75,0-4.12a3.45,3.45,0,0,0-1.35-3c-3.85-3-7.65-6-11.57-8.89a2.89,2.89,0,0,0-4.77,1.61c-.85,3.16-1.46,6.39-2.12,9.59a3,3,0,0,0,1.36,3.31c4.46,3,8.87,6.14,13.41,9.06,2.28,1.46,4.5.28,4.78-2.43A48.45,48.45,0,0,0,184.62,629.61Zm339.77-268.9c0-2.11-.05-4.21,0-6.31,0-1.43-.36-2.13-1.95-2.08q-4.73.14-9.47,0c-1.6,0-2,.67-1.94,2.09q.08,6.16,0,12.31c0,1.29.37,1.93,1.78,1.91q4.89-.09,9.79,0c1.42,0,1.82-.62,1.78-1.91C524.35,364.71,524.39,362.71,524.39,360.71Z"/><path class="cls-1" d="M1159.74,496.58a89.52,89.52,0,0,0-2.07,8.82c-.15.62-.23,1.25-.37,1.87s-.43,1.45-1.36,1.51-1.13-.79-1.29-1.48c-.73-3.09-1.42-6.18-2.13-9.27a2.89,2.89,0,0,0-.64-1.69c-1,.1-.76.89-.85,1.41-.66,3.75-1.28,7.5-1.92,11.25-.09.52-.21,1-.31,1.55-.15.77-.35,1.53-1.37,1.32s-.73-.95-.63-1.53q1.59-9.38,3.22-18.75c.13-.76.31-1.46,1.31-1.5,1.15,0,1.37.73,1.57,1.6.65,2.89,1.31,5.77,2,8.66a6.16,6.16,0,0,0,1.06,2.91c.74-.46.78-1.23.94-1.95.68-3.1,1.34-6.2,2.06-9.29.2-.87.23-2,1.63-1.91,1.2.08,1.14,1,1.28,1.84,1,5.83,2,11.66,3,17.49A12.68,12.68,0,0,1,1165,511a.74.74,0,0,1-.69.87c-.43,0-.91,0-1-.5a31.49,31.49,0,0,1-.72-3.08c-.69-3.91-1.36-7.82-2-11.73Z"/><path class="cls-1" d="M1138.63,501.93c0-2.32,0-4.64,0-7,0-3,0-3-2.86-3.05-.42,0-.84,0-1.26,0-.68,0-1.31-.09-1.26-1s.73-.89,1.38-.89H1145c.59,0,1.07.17,1.14.8.09.86-.5,1-1.19,1.06-1.32.15-3-.63-3.88.53s-.32,2.86-.33,4.32c0,4.11,0,8.22,0,12.33,0,.42,0,.84,0,1.26,0,.8-.18,1.55-1.18,1.48-.77-.05-1-.7-1-1.38,0-1.26,0-2.53,0-3.79C1138.62,505.09,1138.63,503.51,1138.63,501.93Z"/><path class="cls-2" d="M377.33,528.78A118.28,118.28,0,0,1,386.72,518c7.56-7.4,16.19-13,26.63-15.25,17.75-3.8,33.83.18,48,11.47s22.61,26,27.52,43.16A154.93,154.93,0,0,1,494.42,593c.73,15.67.37,31.31-2.39,46.81-3.3,18.52-9.63,35.69-22.2,50.11-6.83,7.84-14.61,14.46-24.34,18.38-17.09,6.89-33.35,4.78-48.73-5.07-8.53-5.46-15.17-12.78-20.67-21.2a9.46,9.46,0,0,0-2-2.66c-.62.75-.4,1.6-.4,2.36,0,7.72,0,15.45,0,23.17,0,2.8,0,2.83-2.78,2.83q-17.62,0-35.24,0c-2.69,0-2.69,0-2.74-2.85,0-.42,0-.85,0-1.27q0-134.91,0-269.83c0-5.62-.61-4.67,4.68-4.69,11.85-.05,23.7,0,35.55,0,.74,0,1.48,0,2.22,0,1,0,1.58.4,1.54,1.49,0,.74,0,1.48,0,2.22q0,45.87,0,91.74A11.67,11.67,0,0,0,377.33,528.78ZM449.66,607c.06-11-.67-22-3.3-32.74-2.23-9.11-6.11-17.33-13-23.89A28.78,28.78,0,0,0,394.6,549,42.7,42.7,0,0,0,382.28,566a77.07,77.07,0,0,0-5.12,22.49,172.21,172.21,0,0,0,1.2,40.82,60.81,60.81,0,0,0,8.37,23.76,37.05,37.05,0,0,0,15.55,14.07A27.5,27.5,0,0,0,417.66,670c7-.82,12.51-4.25,17.25-9.22,5.85-6.14,9.3-13.54,11.39-21.66C449,628.54,449.73,617.8,449.66,607Z"/><path class="cls-2" d="M677.47,605.79c0,22.72-4.72,44.26-16,64.17-9.2,16.2-21.78,28.73-39.08,36.19a75.27,75.27,0,0,1-38.79,5.7c-33.11-3.73-54.67-22.58-67.55-52.41-4.6-10.65-6.87-21.94-8.22-33.44a173.12,173.12,0,0,1-1.07-28.82c1.18-23.92,8-46,22.67-65.17,13.43-17.64,31.28-27.75,53.37-30.13,14.67-1.58,28.91.13,42.47,6.22,12.07,5.42,21.66,13.87,29.4,24.49a116.74,116.74,0,0,1,21.64,54.85A137,137,0,0,1,677.47,605.79Zm-45,.89a101.9,101.9,0,0,0-3.17-27.32c-2.79-10.36-7.79-19.38-16-26.43a32.16,32.16,0,0,0-41.45-1,45.82,45.82,0,0,0-16,23.85,111,111,0,0,0-.12,62,46.86,46.86,0,0,0,13.55,21.83c13.41,12.48,32.9,12.32,46.08-.39,7.06-6.81,11.42-15.13,13.91-24.5A105.81,105.81,0,0,0,632.43,606.68Z"/><path class="cls-2" d="M688.39,610.3c-.46-18.35,1.63-34.51,7.42-50.09,4.87-13.12,11.6-25.16,21.37-35.29a74.66,74.66,0,0,1,47.15-23c15-1.6,29.55.14,43.36,6.52,12.21,5.64,21.8,14.4,29.53,25.3a117.1,117.1,0,0,1,21.33,58.57c1.84,21-.12,41.61-7.72,61.44-5.51,14.39-13.12,27.51-24.6,38-17.29,15.81-37.78,22.53-61,20.09-31.11-3.27-52.19-20.62-65.59-48.11-5.8-11.9-8.55-24.72-10.1-37.81C688.84,620.11,688.61,614.3,688.39,610.3ZM814.14,606a99.91,99.91,0,0,0-2.72-25.14c-2.78-11.29-8-21.11-17.15-28.58a32.11,32.11,0,0,0-41-.27c-8.67,6.94-14,16.06-16.72,26.67a115.64,115.64,0,0,0-.6,54.05,50.3,50.3,0,0,0,14.46,26.29c13.73,13.07,33.53,12.93,47-.37a49.21,49.21,0,0,0,12-19.2C813.07,629,814.17,618.08,814.14,606Z"/><path class="cls-2" d="M1037.12,712.25c-12.06.06-23.86-1.54-35.12-6-19.81-7.85-32.77-22.28-40.06-42.08a91.38,91.38,0,0,1-3.42-11.55c-.53-2.35-.55-2.41,1.75-2.86,7.47-1.43,15-2.81,22.44-4.22,5.4-1,10.8-2,16.2-3.05,2.86-.53,2.91-.5,3.56,2.38a47.44,47.44,0,0,0,4.53,12.48c4.66,8.51,11.73,13.77,21.27,15.52a50.16,50.16,0,0,0,25.08-1.41c7.86-2.59,13.33-7.64,14.92-16.13a19.55,19.55,0,0,0-.48-9.11,11.81,11.81,0,0,0-5.56-7.05,38.12,38.12,0,0,0-9.37-3.82c-12-3.34-24.07-6.57-35.85-10.7a185.64,185.64,0,0,1-24.27-10.13c-14.89-7.73-23.77-20-27.19-36.25a70.16,70.16,0,0,1,1.15-34.86c5.78-19.44,18.74-32,38-38.09,10.5-3.33,21.34-4.16,32.3-3.95a118.94,118.94,0,0,1,25.14,3.07c18.42,4.36,31.16,15.42,38.85,32.54a96.15,96.15,0,0,1,5.43,15.55c.57,2.21.53,2.27-1.66,2.76q-18.1,4.09-36.2,8.15c-2.72.61-2.76.59-3.61-2.32-1.74-5.91-4.57-11.12-9.46-15.07a27.78,27.78,0,0,0-14.2-5.84,62,62,0,0,0-22.38,1.14,20.43,20.43,0,0,0-9.75,5c-6.24,6-5.81,15.14,1,20.48a28.3,28.3,0,0,0,7,3.77c10.21,4.14,20.78,7.15,31.36,10.15,10.39,2.94,20.65,6.22,30.43,10.86a94.74,94.74,0,0,1,11.59,6.55,46.22,46.22,0,0,1,19.89,28.07c3.42,13.5,3.44,27.1-.92,40.39-6.72,20.52-20.83,33.94-41.07,41C1058.27,711.16,1047.77,712.31,1037.12,712.25Z"/><path class="cls-2" d="M926.24,434.84c0,2,0,3.29,0,4.64q0,31.43,0,62.85c0,.42,0,.85,0,1.27.06,2.23.06,2.28,2.28,2.28,7.62,0,15.24,0,22.86,0,4.72,0,4.71,0,4.71,4.67q0,17.14,0,34.28c0,.74,0,1.48,0,2.22,0,.91-.39,1.37-1.32,1.36-.74,0-1.48,0-2.22,0H929.37c-3.12,0-3.13-.38-3.13,3.07q0,25.55,0,51.11c0,14.92.11,29.84.14,44.76,0,3.39.27,6.76.6,10.13.7,7,5.21,10.85,12.2,10.47,4.29-.23,8.27-1.64,12.21-3.22.78-.32,1.56-.65,2.35-.95,2.09-.78,2.13-.78,2.32,1.35.68,7.37,1.33,14.75,2,22.12.44,4.85.8,9.7,1.35,14.53a3.07,3.07,0,0,1-2.08,3.64,72.85,72.85,0,0,1-28.2,6.73c-6.7.28-13.33-.06-19.77-2.15-11.17-3.62-18.37-11.27-22.47-22.08-2.35-6.2-3.18-12.69-3.7-19.24-.89-11.19-.87-22.41-.88-33.63q-.07-41.43,0-82.85c0-4.37.14-3.76-3.72-3.78-4.76,0-9.52-.06-14.28,0-1.6,0-2.21-.4-2.2-2.11q.09-19.2,0-38.41c0-1.76.73-2.09,2.27-2.07,5,.07,9.95,0,14.92,0,3,0,3,0,3-3.18,0-11.43,0-22.86,0-34.28a4.49,4.49,0,0,1,2.09-4.19c13.25-9.3,26.43-18.69,39.63-28C924.51,435.83,925.07,435.54,926.24,434.84Z"/><path class="cls-2" d="M227.35,129.55c9.75.09,23.36,4.9,36,12.61,12.48,7.59,22.47,17.85,31,29.57a183.59,183.59,0,0,1,18.43,32.13c1.4,3.06.8,4.41-2.45,5.46C294.2,214.54,278,219.71,261.81,225c-2.38.77-4,.15-5.46-1.81a76.27,76.27,0,0,0-13.27-13.59c-6.16-4.85-12.91-8.45-20.88-9.22a35.77,35.77,0,0,0-18.79,3.47c-7.87,3.66-14.53,9-20.69,15-1.74,1.7-3.38,3.5-5.06,5.26-2.42,2.54-3.36,2.67-6.23.65q-15.57-10.94-31.11-21.92c-2.16-1.52-4.34-3-6.48-4.57-2.47-1.78-2.8-2.77-1.43-5.31,11.75-21.83,27.16-40.29,49.05-52.64C194,133.21,207.59,129.54,227.35,129.55Z"/><path class="cls-2" d="M190.6,739c-19.12-.06-36.32-6.07-52-16.78a116.35,116.35,0,0,1-20.22-17.75,17.51,17.51,0,0,1-1.65-1.92,2.89,2.89,0,0,1,.76-4.4c1.81-1.28,3.74-2.39,5.63-3.56l37.21-23.05c3.4-2.11,4.08-2,6.65,1,4.38,5.18,9.5,9.34,16.07,11.42,8.9,2.81,17.12.93,24.85-3.83a50.72,50.72,0,0,0,10.38-8.79c2.61-2.8,2.94-2.88,6.26-1.36q22.79,10.39,45.56,20.82c3.48,1.6,4,3.39,1.75,6-13.49,15.72-29.21,28.44-48.73,36A88,88,0,0,1,190.6,739Z"/><path class="cls-2" d="M480.17,482.2c-3,2.64-5.49,5.18-8.27,7.46a18.39,18.39,0,0,1-11,4.25c-12.57.63-22-4.44-28.67-15.15-3.89-6.28-5.67-13.16-6.71-20.31a100.33,100.33,0,0,1,.59-34.72c1.53-7.5,4-14.72,9-20.74,8.4-10.11,19.21-13.26,31.88-10.75,4.14.82,7.16,3.49,10,6.41.88.91,1.69,1.88,2.62,2.92,1-.89.58-2,.58-3q0-24.91,0-49.82c0-.53,0-1.06,0-1.59,0-3.11,0-3.11,3.13-3.13,2.54,0,5.08,0,7.62,0s2.54.06,2.59,2.7c0,.32,0,.63,0,1q0,70.45,0,140.9c0,4.82.46,3.9-4,4.08-2.43.1-4.87-.08-7.3,0-1.53,0-2-.57-2-2.05C480.22,487.84,480.17,485,480.17,482.2Zm-41.35-39c.17,3,.26,6.81.64,10.6a55.51,55.51,0,0,0,4.55,18c5.36,11.53,18.51,11.78,25.78,6.42a23.1,23.1,0,0,0,8.89-14.16c.81-3.63.69-7.36,1-11a130.64,130.64,0,0,0-1.58-34.75,17.13,17.13,0,0,0-4.28-8.36c-7.19-8.15-24.41-9.76-30.22,4.52a55.31,55.31,0,0,0-2.42,6.86C439.4,428.27,439.07,435.33,438.82,443.23Z"/><path class="cls-2" d="M671.43,515.81c1.08,1.18,1.94,2.24,2.92,3.19,4.53,4.35,9.73,4.4,14.4.19,3.67-3.3,5.68-7.58,7.07-12.19a53.75,53.75,0,0,0,1.8-10.93,15.38,15.38,0,0,0-.71-5.62q-13.62-47.37-27.21-94.75c-.15-.51-.32-1-.47-1.52-.32-1.11-.14-1.86,1.26-1.85,3.7,0,7.41.07,11.11,0,1.72,0,1.76,1.27,2.05,2.31,1.77,6.2,3.48,12.41,5.21,18.62l15.41,55.25c.75-.05.8-.63.92-1.06q10.32-36.28,20.61-72.57c.71-2.51.74-2.52,3.46-2.53,3.58,0,7.16,0,10.59,0,.66,1.14.08,1.9-.14,2.68q-13.43,47.26-26.86,94.51c-1.64,5.79-2.83,11.71-4.38,17.52a50.14,50.14,0,0,1-10.16,19.86c-8.6,10.17-26.14,9-34.25-1-1.38-1.7-1.42-1.72.21-3.3C666.63,520.37,669,518.14,671.43,515.81Z"/><path class="cls-2" d="M316.05,399.08c-.8,3.3-1.59,7.13-2.65,10.89a97.21,97.21,0,0,1-12.27,27c-2.27,3.47-3.08,3.71-6.69,1.76q-22.88-12.39-45.73-24.82c-3.47-1.89-3.73-2.73-1.95-6.28q5.91-11.77,11.87-23.5c1.53-3,2.3-3.33,5.55-2.46q24.18,6.54,48.35,13.1C315.28,395.56,316.13,396.5,316.05,399.08Z"/><path class="cls-2" d="M81.48,444.49c0-1.69-.11-3.39,0-5.07.24-2.87.78-3.43,3.57-4q12.57-2.58,25.14-5.1c8.9-1.8,17.83-3.46,26.69-5.46,4.08-.92,5.57.38,6.06,4,1.11,8.16,2.6,16.26,3.93,24.39.44,2.66,0,3.57-2.57,4.67Q119,468.78,93.64,479.6c-2.69,1.15-3.84.71-5.07-1.93a75.39,75.39,0,0,1-6.71-24.32A42.93,42.93,0,0,1,81.48,444.49Z"/><path class="cls-2" d="M299.43,336.84l25,.77c3.54.11,4.33,1,4.41,4.65a109.08,109.08,0,0,1-6.47,38.54c-1.08,3.09-2,3.57-5.29,2.68q-24.61-6.68-49.21-13.4c-3.19-.87-3.77-1.72-3.14-5q2.48-12.91,5.13-25.79c.56-2.73,1.39-3.29,4.51-3.21,8.35.23,16.69.49,25,.74Z"/><path class="cls-2" d="M651.28,475c2.32,2.51,4.27,4.72,6.34,6.81,1,1,1.07,1.81.09,2.92a27.15,27.15,0,0,1-28.59,8,16.14,16.14,0,0,1-9.48-7.47,32,32,0,0,1-4.26-16.7c-.09-15,0-30-.05-45.06,0-5.29,0-10.58,0-15.87,0-2.85,0-2.86-3-2.87-3.49,0-7-.07-10.47,0-1.54,0-2.05-.52-2-2,.08-2.75.1-5.5,0-8.25-.06-1.62.42-2.28,2.14-2.23,3.59.1,7.19,0,10.79,0,2.52,0,2.55,0,2.56-2.67,0-5,0-9.94,0-14.91,0-2.25.07-2.29,2.3-2.32,3,0,5.93.07,8.88,0,1.68-.06,2.19.57,2.16,2.2-.08,5,0,9.94,0,14.91,0,2.79,0,2.82,2.75,2.83,5.71,0,11.42,0,17.13,0,2.72,0,2.73,0,2.75,2.84,0,2.54-.06,5.08,0,7.61.05,1.53-.54,2-2,2-5.71-.06-11.42,0-17.13,0-3.73,0-3.5-.3-3.5,3.35q0,28.56,0,57.11a25.78,25.78,0,0,0,1.72,9.61c2.43,6.18,7.85,8.37,13.89,5.53A16.11,16.11,0,0,0,651.28,475Z"/><path class="cls-2" d="M290.79,456.29a4.88,4.88,0,0,1-.86,2.35,106.29,106.29,0,0,0-10.07,29.6c-.67,3.72-2.58,4.51-5.85,2.39q-16.91-10.94-33.78-22c-5.23-3.4-10.47-6.79-15.68-10.22-2.92-1.92-3.18-3-1.4-6q6.81-11.63,13.71-23.22c1.73-2.91,2.75-3.22,5.67-1.61q22.92,12.63,45.8,25.32C289.66,453.7,290.89,454.49,290.79,456.29Z"/><path class="cls-2" d="M108.25,373.07c8.67.39,17.33.77,26,1.18,3.24.15,4.11,1,4,4.33q-.52,13.32-1.18,26.63c-.12,2.41-1.08,3.33-3.6,3.51q-17.88,1.29-35.77,2.51-6.33.44-12.66.85c-3.24.21-4.05-.26-4.65-3.32a121.87,121.87,0,0,1-1.93-32.84c.26-3.39,1.2-4.07,4.76-3.91q12.52.55,25,1.14Z"/><path class="cls-2" d="M96.31,582.52c0-5.5,0-11,0-16.49,0-3.15.82-3.92,4-3.87q24.58.35,49.15.79c3,.05,4,1,4,4.06q-.08,12.84-.32,25.69c0,2.68-.83,3.47-3.59,3.87q-15.84,2.28-31.69,4.52c-5.12.73-10.24,1.49-15.37,2.24-.73.11-1.46.22-2.2.29-3.46.31-4.46-.56-4.48-4,0-5.71,0-11.42,0-17.13Z"/><path class="cls-2" d="M251.5,594H228a18.2,18.2,0,0,1-2.53-.06,2.87,2.87,0,0,1-2.8-2.89,12.71,12.71,0,0,1,0-1.58q0-14.12.09-28.23c0-3.45.75-4.19,4.22-4.56q19.54-2.09,39.09-4.21c2.81-.31,3.68,0,4.74,2.54,4.75,11.13,8.38,22.58,9.38,34.73.3,3.63-.51,4.51-4.23,4.51-8.14,0-16.29,0-24.43,0Z"/><path class="cls-2" d="M301,320.88q-11.89.48-23.77,1c-3.89.15-4.75-.63-4.7-4.48.12-8.46.3-16.92.47-25.37.06-3.09.68-3.85,3.82-4.35,6.16-1,12.33-1.85,18.49-2.78,7.94-1.19,15.88-2.36,23.82-3.61,5.56-.87,6-.66,7.75,4.67a71.14,71.14,0,0,1,3.25,29.72c-.32,3.16-1.16,4-4.42,4.1L301,320.85Z"/><path class="cls-2" d="M109,360.17c-8.25-.28-16.49-.56-24.74-.86-3.7-.14-4.28-.57-4.58-4.18-.91-10.8-1.11-21.56,2.19-32.08.19-.6.34-1.22.55-1.82.89-2.48,2-3.09,4.62-2.34,5.18,1.5,10.34,3.07,15.5,4.6l32.22,9.58c.61.18,1.21.37,1.82.57,2.8.93,3.25,1.42,3.1,4.31-.24,4.75-.61,9.5-.93,14.25-.11,1.58-.23,3.16-.35,4.75-.24,3.24-1.11,4.12-4.34,4C125.67,360.75,117.32,360.44,109,360.17Z"/><path class="cls-2" d="M108.4,247.8c.07-.24.25-1.06.52-1.86a91.71,91.71,0,0,1,15.18-28c1.85-2.35,2.81-2.59,5.39-1.06q19.09,11.3,38.13,22.7c2.47,1.48,2.79,2.44,1.67,5q-5.43,12.15-11,24.24c-1.27,2.77-2.49,3.2-5.3,1.93q-21.09-9.51-42.15-19.07C109.42,251,108.21,250.22,108.4,247.8Z"/><path class="cls-2" d="M87.63,300.29a71,71,0,0,1,6.63-21.09,72.51,72.51,0,0,1,5.34-9c2.14-3.09,2.9-3.33,6.32-1.83q14.08,6.18,28.15,12.4c4.06,1.79,8.13,3.57,12.18,5.38,3.34,1.49,3.7,2.2,2.85,5.58q-2.8,11.06-5.65,22.11c-.86,3.34-2,4-5.24,3.15Q114.62,310.72,91,304.37C88.13,303.58,87.47,302.72,87.63,300.29Z"/><path class="cls-2" d="M323.8,258.85s0,.49,0,1c-.08,2.41-.62,3.18-3.08,3.62-4.57.83-9.16,1.53-13.75,2.27l-30.64,4.94-.94.14c-4,.55-4.85-.1-5.49-4.09Q268,255,266.13,243.29c-.08-.52-.14-1-.2-1.57-.33-3.19.08-3.9,3.2-4.78q21-5.9,42.09-11.71c3.19-.88,4.12-.4,5.39,2.67A95,95,0,0,1,323.8,258.85Z"/><path class="cls-2" d="M556.38,407.39c1.64-2.09,3-4,4.51-5.74,6.91-8.25,15.75-11.33,26.34-9.89a24.85,24.85,0,0,1,8.6,3.07c1.23.67,1.7,1.32,1,2.73-1.18,2.36-2.26,4.79-3.22,7.25-.62,1.58-1.49,1.77-2.91,1.13A26.88,26.88,0,0,0,583,404a16.58,16.58,0,0,0-13.21,4.09c-9.44,7.8-13.89,17.85-13.89,30q0,23.65,0,47.3c0,1.69-.08,3.39,0,5.08s-.32,2.35-2.09,2.29c-3.17-.11-6.35-.08-9.52,0-1.4,0-1.91-.55-1.81-1.88,0-.63,0-1.27,0-1.9q0-46.35,0-92.7c0-4.53-.23-3.89,3.9-3.92,2.43,0,4.87.06,7.3,0,1.62-.06,2.28.51,2.23,2.19-.09,3.17-.05,6.35,0,9.52A6.59,6.59,0,0,0,556.38,407.39Z"/><path class="cls-2" d="M261.28,308.67c-.1,2.52-.28,6.85-.43,11.18-.05,1.55-.29,3-1.91,3.69s-2.81-.08-4-1.14Q237.55,306.65,220.1,291a5,5,0,0,1-1.69-4.5c.7-8.85,1.34-17.7,2-26.55.12-1.5.39-3,2.09-3.59s2.81.3,3.93,1.38q16.87,16.31,33.77,32.59a5,5,0,0,1,1.7,4.21C261.68,298.62,261.54,302.74,261.28,308.67Z"/><path class="cls-2" d="M153.16,338.47c0-4.13,0-8.25,0-12.38a4.58,4.58,0,0,1,3-4.71c14.06-6.61,28.09-13.32,42.12-20a5.91,5.91,0,0,1,2.38-.81,2.87,2.87,0,0,1,3.11,2.52,6,6,0,0,1,0,1.27c-.33,6.87-.71,13.73-1,20.6a5,5,0,0,1-2.89,4.47c-13.63,7.91-27.2,15.92-40.79,23.9-.46.27-.9.55-1.37.79-3,1.53-5,.34-5.07-3,0-4.23,0-8.46,0-12.69Z"/><path class="cls-2" d="M254.57,604.34h22.53a17.17,17.17,0,0,1,2.53.07c1.86.28,2.88,1.28,2.85,3.2q-.2,11.42-.62,22.84c-.09,2.31-1.18,3.1-3.93,3-5.71-.22-11.41-.53-17.11-.83-10.14-.54-20.27-1.12-30.41-1.67-4-.22-4.58-.76-4.5-4.77.12-5.82.25-11.63.49-17.45.17-4.22.65-4.58,5-4.58h23.17Z"/><path class="cls-2" d="M153.91,619.67c0,2.75.09,5.5,0,8.25-.12,2.91-.68,3.55-3.38,4.17q-23,5.27-46.08,10.49c-3,.69-4.37-.27-4.59-3.46q-.79-11.24-1.39-22.49c-.16-3.05.65-3.9,3.79-4.21q19.9-1.91,39.8-3.76c2.84-.27,5.69-.58,8.54-.73s3.67.79,3.72,3.49,0,5.5,0,8.25Z"/><path class="cls-2" d="M282.12,658.39c0,5.55-.52,11-2.71,16.16-1.51,3.55-2.51,4-6.09,2.64q-22.79-8.77-45.57-17.58c-3.71-1.44-4.08-2.1-3.47-5.9.5-3.13,1-6.27,1.53-9.39.65-3.67,1.32-4.19,5.13-3.79,6,.64,12,1.36,18,2,8.72,1,17.44,2,26.16,3,6,.64,6.36.92,6.77,6.82C282,654.38,282,656.39,282.12,658.39Z"/><path class="cls-2" d="M210.13,334.53c.65-8,1.3-15.79,1.9-23.59.12-1.6.59-2.92,2.17-3.55s2.63.3,3.63,1.29q6.54,6.47,13.06,13c7.73,7.68,15.41,15.41,23.21,23a5.13,5.13,0,0,1,1.61,5.39c-1.45,6-3,11.89-4.15,17.91-.7,3.68-3.85,4.13-6.25,1.86-8.37-7.93-16.93-15.65-25.42-23.45-2.57-2.36-5.09-4.78-7.73-7.06C210.59,338,209.69,336.46,210.13,334.53Z"/><path class="cls-2" d="M151.67,384.23c0-4.44.06-8.88,0-13.32,0-2.22.93-3.46,2.9-4.37,11.89-5.51,23.74-11.1,35.61-16.66.29-.13.58-.26.87-.37,2.66-1,4.48.15,4.44,3s-.36,5.7-.58,8.54c-.37,5-.82,9.91-1.08,14.87a4.59,4.59,0,0,1-2.57,4c-11.63,6.93-23.21,13.92-34.84,20.84-3.41,2-5.42.82-5.44-3.17,0-4.44,0-8.88,0-13.32Z"/><path class="cls-2" d="M209.67,267.95c-.17,4.23-.25,8.46-.53,12.68-.17,2.61-.67,3.17-3.1,3.69-13.22,2.86-25,8.93-36.43,15.91-1.8,1.1-3.56,2.29-5.32,3.46-1.22.81-2.46,1.22-3.83.35a3.11,3.11,0,0,1-1.28-3.34q1.37-11.49,2.75-23c.2-1.7,1.44-2.46,2.79-3.17q9.12-4.8,18.22-9.64l20.74-11,1.13-.58c3.44-1.7,5.35-.58,5.32,3.2,0,2.85-.19,5.71-.3,8.56,0,1-.13,1.9-.2,2.85Z"/><path class="cls-2" d="M152.37,644.24c1.84-.11,2.9.51,3.41,1.84,1.2,3.16,2.4,6.33,3.43,9.55.65,2.05.11,3-2.16,4.34-5.5,3.16-11,6.25-16.57,9.37L115.07,683.7l-1.11.61c-2.91,1.53-3.87,1.27-5.72-1.56a38.32,38.32,0,0,1-3.46-6.77A59.75,59.75,0,0,1,101,659.67c-.35-3.39.18-4.13,3.49-4.86q23.36-5.22,46.73-10.37C151.72,644.32,152.25,644.26,152.37,644.24Z"/><path class="cls-2" d="M524.39,442.3q0,22.85,0,45.7c0,.63,0,1.27,0,1.9,0,2.74,0,2.76-2.79,2.78s-5.71-.06-8.57,0c-1.53,0-2.14-.53-2-2a18.33,18.33,0,0,0,0-1.9q0-46.18,0-92.36c0-.21,0-.42,0-.63,0-3.44,0-3.44,3.43-3.44,2.64,0,5.29.07,7.93,0,1.56-.05,2.11.57,2,2.05-.06.63,0,1.27,0,1.9Q524.39,419.28,524.39,442.3Z"/><path class="cls-2" d="M203.32,379.56c.37-2.08.73-4.16,1.11-6.23,1-5.5,2.07-11,3-16.5.25-1.45.69-2.69,2.15-3.23,1.68-.62,2.79.4,3.86,1.49q15.57,15.79,31.15,31.57c2.23,2.27,2.3,3.19.5,5.76Q239.7,400.22,234.2,408c-2.32,3.26-3.85,3.36-6.48.43q-7.92-8.85-15.8-17.74l-7.17-8A4.1,4.1,0,0,1,203.32,379.56Z"/><path class="cls-2" d="M188.32,416c0,3.7,0,7.4,0,11.1a4.5,4.5,0,0,1-2.6,4.31c-8.71,5-17.37,10.06-26.05,15.1a8.58,8.58,0,0,1-1.69.85,2.86,2.86,0,0,1-3.9-2.13,12.38,12.38,0,0,1-.3-2.51c-.4-7.07-.74-14.14-1.19-21.21a3.91,3.91,0,0,1,2.19-4.15c9.57-5.17,19.11-10.42,28.69-15.57,3.15-1.69,5.11-.47,5.15,3.11s0,7.4,0,11.1Z"/><path class="cls-2" d="M202.43,404.85a3.78,3.78,0,0,1,2.29,1c7.27,5.11,14.55,10.2,21.8,15.34,2.24,1.59,2.48,2.67,1.12,5.11q-4.93,8.88-10,17.68c-1.72,3-3.25,3.29-5.82,1.16-4-3.31-7.9-6.72-11.87-10A4.58,4.58,0,0,1,198,431c.49-7.6.85-15.21,1.32-22.81C199.5,406,200.7,404.82,202.43,404.85Z"/><path class="cls-2" d="M257.54,253.11c-1.21,2.8-2.28,5.69-3.7,8.39a2.81,2.81,0,0,1-4.6.25,19.32,19.32,0,0,1-1.6-2.35,91.19,91.19,0,0,0-10.25-13.28,36.67,36.67,0,0,0-10.77-8.22,3.9,3.9,0,0,1-2.51-4.53c.63-5.24,1.12-10.5,1.8-15.74.41-3.19,2.35-4.13,5.15-2.54a41,41,0,0,1,12,10.69c6,7.63,10.11,16.31,14,25.13A4.47,4.47,0,0,1,257.54,253.11Z"/><path class="cls-2" d="M215.86,221.48c0,2.11,0,4.23,0,6.34-.06,3.45-.3,3.75-3.63,5.05-2.16.85-4.34,1.65-6.49,2.55-7.22,3-13.67,7.07-18.46,13.47-2.14,2.86-4.37,2.54-6.08-.62-3.15-5.85-3.17-5.87.48-11.4,6.07-9.19,13.49-17.05,22.91-22.89a28.33,28.33,0,0,1,6.27-3c3.85-1.23,5.43-.1,5.41,3.86,0,2.22,0,4.43,0,6.65Z"/><path class="cls-2" d="M214.5,582.19c0,2.33-.06,4.65,0,7a4.46,4.46,0,0,1-2,4.05c-4.52,3.3-9,6.65-13.51,10-1.07.79-2.18,1.36-3.52.72a3.3,3.3,0,0,1-1.84-3.39q.17-7.45.28-14.9a4.33,4.33,0,0,1,2-3.74q6.73-4.76,13.39-9.62c1.18-.86,2.37-1.42,3.79-.61s1.57,2.11,1.55,3.55c0,2.32,0,4.65,0,7Z"/><path class="cls-2" d="M163,585.83c.22-2.85.43-5.7.67-8.54.34-4.06,2.4-5.11,5.61-2.77,4.45,3.24,8.81,6.59,13.24,9.85a4.29,4.29,0,0,1,1.91,4.35c-.43,3.68-.66,7.37-1,11.06s-2.28,4.83-5.56,3c-4.33-2.45-8.58-5-12.92-7.45a4.08,4.08,0,0,1-2.35-4.41c.19-1.68.31-3.37.46-5.06Z"/><path class="cls-2" d="M195.74,626.7c-1.06-5.23,1.49-8.55,5.61-11.3,2.44-1.63,4.55-3.76,6.87-5.58,2.65-2.08,4.75-1.42,5.66,1.81,1,3.65,2,7.32,2.87,11,.49,2,.14,3-1.64,4-4.78,2.68-9.58,5.33-14.44,7.84-2.78,1.43-4.75.16-4.91-3C195.67,629.87,195.74,628.28,195.74,626.7Z"/><path class="cls-2" d="M198,662.45c.31-8.66-.73-5.86,5.1-12.06q3.14-3.34,6.41-6.56c2.65-2.61,4.92-2,6,1.6.84,2.83,1.47,5.71,2.34,8.53a3.67,3.67,0,0,1-1.15,4.25c-4.51,4-9,8-13.5,11.94a3.23,3.23,0,0,1-3.75.82c-1.51-.7-1.7-2-1.66-3.46C197.85,665.82,198,664.13,198,662.45Z"/><path class="cls-2" d="M186.56,664.55q0,3,0,6a3.2,3.2,0,0,1-1.95,3.32c-1.48.59-2.66,0-3.69-1.1q-6.38-6.62-12.76-13.23a3.59,3.59,0,0,1-.83-4.06c.93-2.58,1.67-5.23,2.61-7.81,1.17-3.2,3.2-3.7,5.74-1.38,3.12,2.85,6.13,5.82,9.26,8.66a4.92,4.92,0,0,1,1.74,4.19c-.1,1.79,0,3.59,0,5.39Z"/><path class="cls-2" d="M184.62,629.61a48.45,48.45,0,0,1,0,5.07c-.29,2.71-2.51,3.89-4.78,2.43-4.54-2.92-8.95-6-13.41-9.06a3,3,0,0,1-1.36-3.31c.66-3.21,1.27-6.43,2.12-9.59a2.89,2.89,0,0,1,4.77-1.61c3.93,2.87,7.72,5.92,11.57,8.89a3.45,3.45,0,0,1,1.35,3c0,1.37,0,2.75,0,4.12Z"/><path class="cls-2" d="M524.39,360.71c0,2,0,4,0,6,0,1.29-.37,1.94-1.78,1.91q-4.89-.09-9.79,0c-1.41,0-1.79-.61-1.78-1.91q.07-6.16,0-12.31c0-1.41.34-2.13,1.94-2.09q4.73.14,9.47,0c1.59,0,2,.65,1.95,2.08C524.34,356.49,524.39,358.6,524.39,360.71Z"/><path class="cls-1" d="M449.66,607c.07,10.82-.65,21.56-3.36,32.09-2.09,8.11-5.53,15.52-11.39,21.66-4.74,5-10.28,8.4-17.25,9.22a27.5,27.5,0,0,1-15.39-2.78,37.05,37.05,0,0,1-15.55-14.07,60.81,60.81,0,0,1-8.37-23.76,172.21,172.21,0,0,1-1.2-40.82A77.07,77.07,0,0,1,382.28,566,42.7,42.7,0,0,1,394.6,549a28.78,28.78,0,0,1,38.74,1.37c6.91,6.56,10.78,14.78,13,23.89C449,585,449.72,595.95,449.66,607Z"/><path class="cls-1" d="M632.42,606.68a105.73,105.73,0,0,1-3.25,28c-2.49,9.38-6.86,17.7-13.91,24.5-13.17,12.71-32.67,12.87-46.08.39a46.86,46.86,0,0,1-13.55-21.83,111,111,0,0,1,.12-62,45.82,45.82,0,0,1,16-23.85,32.16,32.16,0,0,1,41.45,1c8.24,7.06,13.24,16.08,16,26.43A101.83,101.83,0,0,1,632.42,606.68Z"/><path class="cls-1" d="M814.14,606c0,12-1.07,22.93-4.72,33.46a49.21,49.21,0,0,1-12,19.2c-13.47,13.3-33.27,13.44-47,.37A50.3,50.3,0,0,1,736,632.79a115.64,115.64,0,0,1,.6-54.05c2.71-10.62,8.05-19.74,16.72-26.67a32.11,32.11,0,0,1,41,.27c9.13,7.47,14.36,17.29,17.15,28.58A99.91,99.91,0,0,1,814.14,606Z"/><path class="cls-1" d="M438.82,443.23c.25-7.89.58-15,2.38-21.87a55.31,55.31,0,0,1,2.42-6.86c5.82-14.28,23-12.66,30.22-4.52a17.13,17.13,0,0,1,4.28,8.36,130.64,130.64,0,0,1,1.58,34.75c-.32,3.68-.2,7.41-1,11a23.1,23.1,0,0,1-8.89,14.16c-7.27,5.36-20.42,5.11-25.78-6.42a55.51,55.51,0,0,1-4.55-18C439.08,450,439,446.23,438.82,443.23Z"/></svg>